<?xml version="1.0"?>
<svg xmlns="http://www.w3.org/2000/svg" xmlns:xlink="http://www.w3.org/1999/xlink" version="1.1" id="Capa_1" x="0px" y="0px" width="512px" height="512px" viewBox="0 0 106.048 106.048" style="enable-background:new 0 0 106.048 106.048;" xml:space="preserve" class=""><g><g>
	<path d="M60.537,39.768c0,4.391-3.562,7.954-7.953,7.954c-4.392,0-7.954-3.562-7.954-7.954   c0-4.391,3.562-7.953,7.954-7.953C56.975,31.814,60.537,35.377,60.537,39.768z M106.048,21.209v63.629   c0,11.666-9.543,21.21-21.21,21.21H21.209C9.543,106.048,0,96.504,0,84.838V21.209C0,9.543,9.543,0,21.209,0h63.628   C96.505,0,106.048,9.543,106.048,21.209z M79.536,39.768c0-14.646-11.879-26.512-26.513-26.512   c-14.646,0-26.512,11.865-26.512,26.512c0,11.363,7.18,20.972,17.217,24.752l2.667,8.098l6.627,20.175l6.629-20.175l2.666-8.098   C72.359,60.739,79.536,51.131,79.536,39.768z" data-original="#000000" class="active-path" data-old_color="#000000" fill="#601818"/>
</g></g> </svg>
