<?xml version="1.0"?>
<svg xmlns="http://www.w3.org/2000/svg" xmlns:xlink="http://www.w3.org/1999/xlink" version="1.1" id="Capa_1" x="0px" y="0px" viewBox="0 0 512 512" style="enable-background:new 0 0 512 512;" xml:space="preserve" width="512px" height="512px"><g><g>
	<g>
		<path d="M369.957,284.039H156.433c-3.163,0-5.735-2.613-5.735-5.825v-58.912c0-4.78-3.876-8.656-8.656-8.656H23.137    C10.379,210.646,0,220.985,0,233.693v209.478c0,12.758,10.379,23.138,23.137,23.138h332.339c12.758,0,23.137-10.38,23.137-23.139    V292.695C378.613,287.915,374.737,284.039,369.957,284.039z M361.301,443.171c0,3.213-2.613,5.826-5.825,5.826H23.137    c-3.211,0-5.825-2.613-5.825-5.826V233.693c0-3.163,2.613-5.735,5.825-5.735h110.249v50.256c0,12.758,10.339,23.137,23.047,23.137    h204.868V443.171z" data-original="#353B40" class="active-path" data-old_color="#353B40" fill="#40474B"/>
	</g>
</g><g>
	<g>
		<path d="M488.863,45.691h-332.43c-12.708,0-23.047,10.339-23.047,23.047v209.477c0,12.758,10.339,23.137,23.047,23.137h332.43    c12.758,0,23.137-10.378,23.137-23.136V68.738C512,56.03,501.621,45.691,488.863,45.691z M494.688,278.216    c0,3.211-2.613,5.825-5.825,5.825h-332.43c-3.163,0-5.735-2.613-5.735-5.825V68.738c0-3.109,2.626-5.735,5.735-5.735h332.43    c3.211,0,5.825,2.573,5.825,5.735V278.216z" data-original="#353B40" class="active-path" data-old_color="#353B40" fill="#40474B"/>
	</g>
</g><g>
	<g>
		<path d="M96.965,249.91H53.214c-7.335,0-13.302,5.967-13.302,13.302v43.75c0,7.335,5.967,13.304,13.302,13.304h43.75    c7.335,0,13.301-5.968,13.302-13.304v-43.75C110.266,255.877,104.299,249.91,96.965,249.91z M92.953,302.953h-35.73v-35.73h35.73    V302.953z" data-original="#353B40" class="active-path" data-old_color="#353B40" fill="#40474B"/>
	</g>
</g><g>
	<g>
		<path d="M503.336,81.986H142.027c-4.78,0-8.656,3.876-8.656,8.656v38.47c0,4.78,3.876,8.656,8.656,8.656h361.309    c4.78,0,8.656-3.876,8.656-8.656v-38.47C511.992,85.862,508.117,81.986,503.336,81.986z M494.68,120.457H150.683V99.299H494.68    V120.457z" data-original="#353B40" class="active-path" data-old_color="#353B40" fill="#40474B"/>
	</g>
</g><g>
	<g>
		<path d="M430.233,194.076c-6.359-5.38-14.446-8.342-22.769-8.342c-19.403,0-35.19,15.785-35.19,35.189    c0,19.403,15.786,35.189,35.19,35.189c8.325,0,16.411-2.964,22.76-8.336c7.899-6.664,12.429-16.451,12.429-26.853    S438.123,200.734,430.233,194.076z M419.05,234.549c-3.236,2.74-7.351,4.248-11.586,4.248c-9.857,0-17.877-8.02-17.877-17.876    s8.02-17.876,17.877-17.876c4.235,0,8.35,1.508,11.595,4.255c3.993,3.367,6.281,8.333,6.281,13.622    C425.34,226.209,423.052,231.173,419.05,234.549z" data-original="#353B40" class="active-path" data-old_color="#353B40" fill="#40474B"/>
	</g>
</g><g>
	<g>
		<path d="M441.823,185.735c-8.325,0-16.412,2.963-22.771,8.342c-1.945,1.646-3.068,4.066-3.065,6.614s1.126,4.966,3.074,6.61    c3.993,3.367,6.281,8.333,6.281,13.622c0,5.288-2.29,10.252-6.28,13.62c-1.949,1.643-3.073,4.061-3.075,6.609    s1.119,4.969,3.064,6.614c6.359,5.381,14.446,8.345,22.772,8.345c19.403,0,35.189-15.786,35.189-35.188    C477.012,201.52,461.226,185.735,441.823,185.735z M441.823,238.798c-1.28,0-2.547-0.137-3.785-0.406    c2.994-5.245,4.616-11.249,4.616-17.469c0-6.223-1.621-12.225-4.616-17.472c1.238-0.268,2.505-0.406,3.785-0.406    c9.857,0,17.876,8.019,17.876,17.876S451.679,238.798,441.823,238.798z" data-original="#353B40" class="active-path" data-old_color="#353B40" fill="#40474B"/>
	</g>
</g><g>
	<g>
		<path d="M82.155,340.263H48.567c-4.78,0-8.656,3.876-8.656,8.656c0,4.78,3.876,8.656,8.656,8.656h33.588    c4.78,0,8.656-3.876,8.656-8.656C90.811,344.138,86.936,340.263,82.155,340.263z" data-original="#353B40" class="active-path" data-old_color="#353B40" fill="#40474B"/>
	</g>
</g><g>
	<g>
		<path d="M134.444,379.632H48.567c-4.78,0-8.656,3.876-8.656,8.656s3.876,8.656,8.656,8.656h85.877    c4.781,0,8.656-3.876,8.656-8.656S139.225,379.632,134.444,379.632z" data-original="#353B40" class="active-path" data-old_color="#353B40" fill="#40474B"/>
	</g>
</g><g>
	<g>
		<path d="M184.732,414.3H48.567c-4.78,0-8.656,3.876-8.656,8.656c0,4.78,3.876,8.656,8.656,8.656h136.166    c4.78,0,8.655-3.876,8.655-8.656C193.388,418.176,189.512,414.3,184.732,414.3z" data-original="#353B40" class="active-path" data-old_color="#353B40" fill="#40474B"/>
	</g>
</g><g>
	<g>
		<path d="M161.275,340.263h-33.588c-4.78,0-8.656,3.876-8.656,8.656c0,4.78,3.876,8.656,8.656,8.656h33.588    c4.78,0,8.656-3.876,8.656-8.656C169.932,344.138,166.056,340.263,161.275,340.263z" data-original="#353B40" class="active-path" data-old_color="#353B40" fill="#40474B"/>
	</g>
</g><g>
	<g>
		<path d="M240.394,340.263h-33.588c-4.78,0-8.656,3.876-8.656,8.656c0,4.78,3.876,8.656,8.656,8.656h33.588    c4.781,0,8.656-3.876,8.656-8.656C249.051,344.138,245.175,340.263,240.394,340.263z" data-original="#353B40" class="active-path" data-old_color="#353B40" fill="#40474B"/>
	</g>
</g><g>
	<g>
		<path d="M319.515,340.263h-33.588c-4.78,0-8.656,3.876-8.656,8.656c0,4.78,3.876,8.656,8.656,8.656h33.588    c4.78,0,8.656-3.876,8.656-8.656C328.171,344.138,324.295,340.263,319.515,340.263z" data-original="#353B40" class="active-path" data-old_color="#353B40" fill="#40474B"/>
	</g>
</g><g>
	<g>
		<path d="M260.651,164.357h-75.918c-4.78,0-8.656,3.876-8.656,8.656s3.876,8.656,8.656,8.656h75.918    c4.78,0,8.656-3.876,8.656-8.656S265.432,164.357,260.651,164.357z" data-original="#353B40" class="active-path" data-old_color="#353B40" fill="#40474B"/>
	</g>
</g><g>
	<g>
		<path d="M295.113,201.578h-110.38c-4.78,0-8.656,3.876-8.656,8.656s3.876,8.656,8.656,8.656h110.38    c4.78,0,8.656-3.876,8.656-8.656S299.893,201.578,295.113,201.578z" data-original="#353B40" class="active-path" data-old_color="#353B40" fill="#40474B"/>
	</g>
</g><g>
	<g>
		<path d="M340.085,238.798H184.733c-4.78,0-8.656,3.876-8.656,8.656c0,4.78,3.876,8.656,8.656,8.656h155.352    c4.78,0,8.656-3.876,8.656-8.656C348.741,242.674,344.865,238.798,340.085,238.798z" data-original="#353B40" class="active-path" data-old_color="#353B40" fill="#40474B"/>
	</g>
</g></g> </svg>
