<?xml version="1.0"?>
<svg xmlns="http://www.w3.org/2000/svg" xmlns:xlink="http://www.w3.org/1999/xlink" version="1.1" id="Layer_1" x="0px" y="0px" viewBox="0 0 512 512" style="enable-background:new 0 0 512 512;" xml:space="preserve" width="512px" height="512px"><g><g>
	<g>
		<path d="M511.926,138.298c-0.023-0.708-0.253-1.387-0.422-2.091c-0.169-0.695-0.271-1.398-0.569-2.033    c-0.055-0.117-0.042-0.246-0.102-0.362l-43.635-85.333c-1.823-3.573-5.49-5.813-9.5-5.813H224.969c-4.01,0-7.677,2.24-9.5,5.813    l-43.635,85.333c-0.06,0.116-0.047,0.245-0.102,0.362c-0.298,0.634-0.4,1.337-0.569,2.033c-0.169,0.704-0.398,1.383-0.422,2.091    c-0.005,0.13-0.074,0.237-0.074,0.369v128.383c-19.362,1.137-36.335,4.958-46.619,7.788    c-3.212-11.169-12.328-20.174-24.413-22.587L12.76,234.875c-3.125-0.583-6.385,0.188-8.854,2.208    C1.438,239.115,0,242.135,0,245.333V416c0,5.896,4.771,10.667,10.667,10.667H77.5c13.165,0,24.384-8.382,29.212-20.147    c23.875,11.383,134.342,62.814,181.288,62.814c41.375,0,126.531-41.865,182.875-69.563c14.708-7.229,26.865-13.208,34.75-16.667    c3.875-1.708,6.375-5.542,6.375-9.771V138.667C512,138.535,511.931,138.428,511.926,138.298z M103.917,285.135L88.052,396.177    c-0.74,5.219-5.281,9.156-10.552,9.156H21.333v-146.99l74.115,14.823C101,274.281,104.719,279.531,103.917,285.135z M451.177,64    l32.721,64H402.99l-16-64H451.177z M317.656,64h47.354l15.996,64H301.66L317.656,64z M298.667,149.333H384V192h-85.333V149.333z     M231.49,64h64.188l-16,64h-80.909L231.49,64z M461.458,380.625C410.208,405.823,324.417,448,288,448    c-38.802,0-140.688-45.427-176.667-62.927c-0.043-0.021-0.09-0.014-0.133-0.034l12.557-87.898    c7.759-2.43,31.513-9.141,57.576-9.141c15.75,0,27.906,5.865,43.292,13.281c13.813,6.667,29.479,14.219,50.583,18.51    c46.354,9.396,66.125,19.031,66.125,32.208c0,2.604-0.792,4.208-2.823,5.719c-6.75,5.052-33.24,13.594-132.813-15.948    c-5.667-1.646-11.583,1.563-13.26,7.198c-1.677,5.646,1.552,11.583,7.198,13.26c49.125,14.563,86.698,21.823,113.323,21.823    c17.365,0,30.073-3.083,38.313-9.24c0.711-0.53,1.232-1.18,1.878-1.751c0.665-0.073,1.322,0.008,1.987-0.197    C374,367.063,427.438,352,448,352c17.396,0,35.698,5.292,41.094,15.208C481.646,370.708,472.219,375.344,461.458,380.625z     M490.667,340.706c-11.02-6.286-25.576-10.039-42.667-10.039c-20.822,0-64.004,11.603-85.885,17.889    c-2.902-30.612-42.124-41.448-82.656-49.681c-18.5-3.75-32.26-10.385-45.573-16.802c-13.419-6.479-26.389-12.422-41.885-14.462    V149.333h85.333v53.333c0,5.896,4.771,10.667,10.667,10.667h106.667c5.896,0,10.667-4.771,10.667-10.667v-53.333h85.333V340.706z" data-original="#353B40" class="active-path" data-old_color="#353B40" fill="#40474B"/>
	</g>
</g></g> </svg>
