<?xml version="1.0"?>
<svg xmlns="http://www.w3.org/2000/svg" xmlns:xlink="http://www.w3.org/1999/xlink" version="1.1" id="Capa_1" x="0px" y="0px" viewBox="0 0 462.71 462.71" style="enable-background:new 0 0 462.71 462.71;" xml:space="preserve" width="512px" height="512px" class=""><g><path d="M417.643,113.718H313.944c9.975-9.666,16.193-23.187,16.193-38.141c0-29.302-23.839-53.141-53.142-53.141  c-16.975,0-32.106,8.01-41.841,20.439C226.29,17.922,202.452,0,174.496,0c-35.488,0-64.359,28.871-64.359,64.359  c0,19.806,8.999,37.544,23.115,49.359H45.067c-4.142,0-7.5,3.358-7.5,7.5v98.614c0,4.142,3.358,7.5,7.5,7.5h4.815V455.21  c0,4.142,3.358,7.5,7.5,7.5h347.945c4.143,0,7.5-3.358,7.5-7.5V227.332h4.815c4.143,0,7.5-3.358,7.5-7.5v-98.614  C425.143,117.076,421.786,113.718,417.643,113.718z M410.143,212.332H277.234v-83.614h0.004h132.905V212.332z M175.072,38.945  c4.58,7.598,7.028,16.319,7.028,25.416v34.472c-8.881-9.097-14.077-21.419-14.077-34.472  C168.022,55.326,170.487,46.563,175.072,38.945z M200.476,128.718h61.758V447.71h-61.758V128.718z M274.902,75.573  c0-6.972,1.905-13.615,5.292-19.362c3.44,5.808,5.283,12.454,5.283,19.362c0,9.899-3.75,19.209-10.575,26.338V75.573z   M315.137,75.577c0,18.205-12.824,33.462-29.911,37.237c9.833-9.99,15.25-23.192,15.25-37.241c0-11.192-3.466-21.897-9.875-30.842  c1.395-1.014,2.874-1.929,4.418-2.757C306.985,48.418,315.137,61.062,315.137,75.577z M275.993,37.462  c-10.107,9.819-16.091,23.46-16.091,38.111v38.146h-21.047V75.577C238.855,54.883,255.424,37.997,275.993,37.462z M223.855,64.359  v11.218v38.141h-26.756V64.361c0-17.189-6.696-33.353-18.856-45.514c-1.351-1.351-2.761-2.62-4.209-3.835  c0.155-0.001,0.307-0.012,0.462-0.012C201.713,15,223.855,37.142,223.855,64.359z M125.137,64.359  c0-19.763,11.68-36.841,28.496-44.718c4.115,1.919,7.914,4.388,11.356,7.369c-7.749,10.851-11.967,23.867-11.967,37.351  c0,19.228,8.625,37.258,23.083,49.357h-1.608h-0.001C147.279,113.718,125.137,91.576,125.137,64.359z M52.567,128.718h132.909  v83.614H52.567V128.718z M64.883,227.332h120.593V447.71H64.883V227.332z M397.828,447.71H277.234V227.332h120.594V447.71z" data-original="#353B40" class="active-path" data-old_color="#353B40" fill="#40474B"/></g> </svg>
