<?xml version="1.0"?>
<svg xmlns="http://www.w3.org/2000/svg" xmlns:xlink="http://www.w3.org/1999/xlink" version="1.1" id="Capa_1" x="0px" y="0px" viewBox="0 0 482.014 482.014" style="enable-background:new 0 0 482.014 482.014;" xml:space="preserve" width="512px" height="512px"><g><g>
	<g>
		<path d="M481.06,96.432c-0.256-3.704-3.032-6.736-6.696-7.32c-40.392-6.504-80.24-17.128-118.44-31.592    C317.388,42.944,280.196,24.352,245.38,2.248c-2.616-1.656-5.96-1.656-8.576,0c-34.816,22.104-72,40.696-110.544,55.272    C88.06,71.984,48.212,82.608,7.82,89.112c-3.664,0.584-6.44,3.616-6.712,7.32c-3.68,50.584,1.816,100.024,16.336,146.944    C63.46,392.096,184.356,453.24,229.86,476.264c2.84,1.432,5.36,2.712,7.52,3.832c1.176,0.608,2.44,0.912,3.712,0.912    c1.272,0,2.536-0.304,3.696-0.904c2.072-1.088,4.48-2.296,7.168-3.664c45.272-22.968,165.544-83.96,211.68-233.064    C482.452,182.584,483.492,129.912,481.06,96.432z M448.364,238.64c-44.144,142.624-160.016,201.4-203.64,223.52    c-1.28,0.648-2.488,1.264-3.632,1.84c-1.256-0.632-2.592-1.312-4-2.024c-43.848-22.168-160.336-81.104-204.36-223.336    c-13.328-43.064-18.728-88.376-16.072-134.784c39.296-6.744,78.04-17.28,115.264-31.368    c37.976-14.36,74.672-32.528,109.168-54.024c34.496,21.504,71.192,39.664,109.168,54.032    c37.216,14.08,75.96,24.624,115.248,31.368C467.26,136.088,465.3,183.904,448.364,238.64z" data-original="#353B40" class="active-path" data-old_color="#353B40" fill="#40474B"/>
	</g>
</g><g>
	<g>
		<path d="M320.604,281.888c-1.952-17.648-11.04-33.944-25.528-45.888c12.384-11.336,21.264-26.52,24.56-43.896    c10.064-2.864,17.456-12.136,17.456-23.096c0-12.816-10.088-23.304-22.728-23.968c-12.632-28.952-41.4-48.032-73.272-48.032    s-60.64,19.08-73.272,48.032c-12.64,0.664-22.728,11.152-22.728,23.968c0,10.864,7.256,20.064,17.432,23.008    c3.288,17.408,12.176,32.624,24.584,43.976c-14.48,11.944-23.576,28.248-25.528,45.888c-18.472,4.24-32.488,23.744-32.488,47.128    c0,26.472,17.944,48,40,48c10.68,0,20.368-5.08,27.552-13.288c9.624,2.44,20.08,4.144,31.12,4.856    c4.376,0.288,8.832,0.432,13.328,0.432c4.496,0,8.952-0.144,13.328-0.432c11.04-0.72,21.496-2.424,31.12-4.856    c7.184,8.208,16.872,13.288,27.552,13.288c22.056,0,40-21.528,40-48C353.092,305.624,339.076,286.12,320.604,281.888z     M177.516,184.128c-0.448-4.048-4.344-7.12-8.424-7.12c-4.408,0-8-3.584-8-8s3.592-8,8-8h4.184c3.392,0,6.408-2.136,7.544-5.328    c7.056-19.936,23.424-34.624,43.104-40.16c-1.224,5.584-0.736,11.576,2.008,17.072c3.08,6.16,8.4,10.76,14.984,12.952    c2.712,0.896,5.496,1.352,8.264,1.352c3.952,0,7.872-0.912,11.496-2.728l-7.16-14.312c-2.336,1.184-5.008,1.36-7.536,0.504    c-2.52-0.84-4.56-2.592-5.728-4.928c-2.144-4.28-0.616-9.448,3.128-12.24c26.08,0.944,49.216,17.696,57.992,42.488    c1.128,3.192,4.144,5.328,7.536,5.328h4.184c4.408,0,8,3.584,8,8s-3.592,8-8.472,8c-4.08,0-7.504,3.072-7.952,7.12    c-2.12,19.168-12.576,35.496-27.48,45.688c-21.352,14.624-50.848,14.624-72.192,0    C190.092,219.624,179.636,203.296,177.516,184.128z M192.636,334.976c-0.24,1.6-0.592,3.168-1.024,4.696    c-0.056,0.208-0.088,0.424-0.144,0.632c-1.056,3.544-2.608,6.872-4.648,9.896c-0.096,0.144-0.096,0.336-0.184,0.488    c-4.384,6.304-10.6,10.32-17.544,10.32c-13.232,0-24-14.352-24-32s10.768-32,24-32c4.824,0,9.304,1.944,13.072,5.232    c0.176,0.2,0.296,0.44,0.496,0.632c3.208,2.984,5.76,6.88,7.552,11.272c0.056,0.144,0.12,0.28,0.168,0.416    c0.768,1.952,1.336,4.024,1.784,6.144c0.072,0.352,0.176,0.68,0.24,1.032c0.44,2.368,0.688,4.8,0.688,7.272    C193.092,331.048,192.916,333.032,192.636,334.976z M278.404,305.128c-0.072,0.152-0.136,0.312-0.208,0.464    c-0.736,1.576-1.416,3.192-2,4.864c-0.088,0.24-0.144,0.496-0.232,0.744c-0.088,0.264-0.16,0.536-0.248,0.8    c-0.136,0.416-0.264,0.832-0.384,1.256c-0.24,0.824-0.472,1.648-0.672,2.496c-0.144,0.592-0.264,1.184-0.384,1.784    c-0.176,0.872-0.352,1.744-0.496,2.632c-0.056,0.376-0.096,0.76-0.144,1.144c-0.008,0.064-0.016,0.136-0.024,0.2    c-0.08,0.584-0.16,1.152-0.224,1.744c-0.168,1.896-0.296,3.8-0.296,5.752c0,1.736,0.088,3.448,0.24,5.144    c0.04,0.4,0.104,0.8,0.152,1.2c0.144,1.32,0.32,2.632,0.552,3.92c0.064,0.328,0.144,0.648,0.208,0.968    c0.288,1.416,0.616,2.8,1,4.168c0.04,0.136,0.08,0.272,0.128,0.408c0.464,1.576,0.992,3.112,1.576,4.616    c-21.952,4.704-49.76,4.704-71.712-0.008c0.592-1.496,1.12-3.032,1.576-4.616c0.04-0.136,0.088-0.272,0.128-0.408    c0.384-1.36,0.712-2.752,1-4.168c0.064-0.328,0.152-0.648,0.208-0.968c0.232-1.288,0.408-2.6,0.552-3.92    c0.048-0.4,0.12-0.792,0.152-1.2c0.152-1.688,0.24-3.4,0.24-5.136c0-1.952-0.128-3.856-0.312-5.752    c-0.056-0.584-0.144-1.16-0.224-1.744c-0.008-0.064-0.016-0.136-0.024-0.2c-0.048-0.384-0.088-0.76-0.144-1.144    c-0.136-0.888-0.312-1.76-0.496-2.632c-0.12-0.6-0.24-1.192-0.384-1.784c-0.2-0.84-0.432-1.672-0.672-2.496    c-0.12-0.424-0.248-0.84-0.384-1.256c-0.088-0.264-0.16-0.536-0.248-0.8c-0.08-0.248-0.144-0.504-0.232-0.744    c-0.584-1.672-1.264-3.288-2-4.864c-0.072-0.152-0.136-0.312-0.208-0.464c-0.024-0.04-0.032-0.088-0.056-0.136h74.752    C278.436,305.032,278.428,305.08,278.404,305.128z M278.86,289.008l-6.176-18.528l-15.176,5.064l4.48,13.464h-41.8l4.488-13.472    l-15.176-5.064l-6.176,18.536h-12.168c-0.208-0.168-0.432-0.312-0.648-0.472c-0.312-0.24-0.632-0.464-0.96-0.696    c-1.68-1.208-3.424-2.296-5.248-3.2c-0.224-0.112-0.456-0.192-0.688-0.304c-1.8-0.848-3.664-1.544-5.584-2.072    c-0.152-0.04-0.296-0.128-0.448-0.168c2.024-14.104,10.16-27.096,22.776-36.232c3.056,1.808,6.248,3.376,9.544,4.768    c0.024,0.008,0.048,0.024,0.072,0.032c9.6,4.048,20.096,6.344,31.12,6.344s21.528-2.296,31.128-6.344    c0.016-0.008,0.04-0.016,0.056-0.024c3.296-1.392,6.496-2.968,9.552-4.776c12.616,9.136,20.752,22.128,22.776,36.232    c-0.152,0.04-0.296,0.12-0.448,0.168c-1.92,0.528-3.784,1.224-5.584,2.072c-0.232,0.104-0.464,0.192-0.688,0.304    c-1.824,0.904-3.568,2-5.248,3.2c-0.32,0.232-0.64,0.456-0.96,0.696c-0.216,0.16-0.44,0.304-0.648,0.472H278.86z M313.092,361.008    c-6.944,0-13.16-4.016-17.544-10.328c-0.088-0.152-0.08-0.336-0.184-0.488c-2.04-3.024-3.592-6.352-4.648-9.888    c-0.064-0.216-0.096-0.44-0.152-0.656c-0.424-1.528-0.776-3.08-1.016-4.68c-0.28-1.936-0.456-3.92-0.456-5.96    c0-2.472,0.248-4.904,0.68-7.272c0.064-0.352,0.168-0.68,0.24-1.032c0.448-2.12,1.016-4.184,1.784-6.136    c0.056-0.144,0.12-0.28,0.176-0.424c1.784-4.392,4.344-8.288,7.552-11.272c0.2-0.184,0.32-0.424,0.496-0.632    c3.768-3.288,8.248-5.232,13.072-5.232c13.232,0,24,14.352,24,32S326.324,361.008,313.092,361.008z" data-original="#353B40" class="active-path" data-old_color="#353B40" fill="#40474B"/>
	</g>
</g><g>
	<g>
		<rect x="209.092" y="169.008" width="16" height="16" data-original="#353B40" class="active-path" data-old_color="#353B40" fill="#40474B"/>
	</g>
</g><g>
	<g>
		<rect x="257.092" y="169.008" width="16" height="16" data-original="#353B40" class="active-path" data-old_color="#353B40" fill="#40474B"/>
	</g>
</g><g>
	<g>
		<path d="M257.7,197.928c-2.792,6.736-9.312,11.08-16.608,11.08c-7.296,0-13.816-4.344-16.616-11.08l-14.768,6.16    c5.288,12.712,17.608,20.92,31.384,20.92s26.096-8.208,31.384-20.92L257.7,197.928z" data-original="#353B40" class="active-path" data-old_color="#353B40" fill="#40474B"/>
	</g>
</g></g> </svg>
