<?xml version="1.0"?>
<svg xmlns="http://www.w3.org/2000/svg" xmlns:xlink="http://www.w3.org/1999/xlink" version="1.1" id="Capa_1" x="0px" y="0px" viewBox="0 0 512.001 512.001" style="enable-background:new 0 0 512.001 512.001;" xml:space="preserve" width="512px" height="512px"><g><g>
	<g>
		<path d="M161.264,0.819L10.28,60.812C4.158,62.849,0.027,68.577,0.027,75.036v361.962c0,6.458,4.131,12.186,10.253,14.221    l150.984,59.994c9.504,3.228,19.744-3.842,19.744-14.222V15.041C181.008,4.596,170.625-2.484,161.264,0.819z M136.013,271.015    c-8.283,0-14.998-6.715-14.998-14.998c0-8.285,6.716-14.998,14.998-14.998c8.283,0,14.998,6.713,14.998,14.998    C151.011,264.3,144.296,271.015,136.013,271.015z" data-original="#000000" class="active-path" data-old_color="#000000" fill="#601818"/>
	</g>
</g><g>
	<g>
		<path d="M496.975,226.02H375.988v-44.968c0-12.454-14.299-19.482-24.16-11.875L264.291,242.6    c-11.055,5.527-11.053,21.304,0.002,26.831l87.537,73.425c9.859,7.605,24.158,0.577,24.158-11.875v-44.968h120.987    c8.283,0,14.998-6.715,14.998-14.998v-29.997C511.973,232.733,505.258,226.02,496.975,226.02z" data-original="#000000" class="active-path" data-old_color="#000000" fill="#601818"/>
	</g>
</g><g>
	<g>
		<path d="M247.022,217.935l85.538-71.74c8.92-6.913,18.396-10.165,28.371-10.165c0.02,0,0.038,0.005,0.059,0.005V75.036    c0-8.29-6.708-14.998-14.998-14.998H211.006v391.959h134.986c8.29,0,14.998-6.708,14.998-14.998v-60.999    c-0.02,0-0.038,0.005-0.059,0.005c-9.975,0-19.451-3.252-27.419-9.389l-86.49-72.516c-13.065-8.187-21.019-22.41-21.019-38.082    C226.004,240.344,233.957,226.122,247.022,217.935z" data-original="#000000" class="active-path" data-old_color="#000000" fill="#601818"/>
	</g>
</g></g> </svg>
